<svg xmlns="http://www.w3.org/2000/svg" width="512" height="512" viewBox="0 0 512 512">
  <!-- Fallback/monocromo. O ícone real do PWA é o selo (icon-512.png).
       Malha de quadradinhos = a linha do tempo como rede (espinha do app).
       Cores: navy Concefor (base) + destaques do selo 20 anos (magenta/azul/verde). -->
  <rect width="512" height="512" fill="#102a5c"/>
  <g fill="#1d4d86">
    <rect x="64"  y="64"  width="48" height="48" rx="6"/>
    <rect x="128" y="64"  width="48" height="48" rx="6"/>
    <rect x="256" y="64"  width="48" height="48" rx="6"/>
    <rect x="384" y="64"  width="48" height="48" rx="6"/>
    <rect x="64"  y="192" width="48" height="48" rx="6"/>
    <rect x="320" y="192" width="48" height="48" rx="6"/>
    <rect x="192" y="256" width="48" height="48" rx="6"/>
    <rect x="64"  y="384" width="48" height="48" rx="6"/>
    <rect x="256" y="384" width="48" height="48" rx="6"/>
    <rect x="384" y="384" width="48" height="48" rx="6"/>
  </g>
  <!-- destaques: as três cores do selo 20 anos -->
  <rect x="192" y="128" width="48" height="48" rx="6" fill="#ff66cc"/>
  <rect x="256" y="256" width="48" height="48" rx="6" fill="#3399cc"/>
  <rect x="320" y="320" width="48" height="48" rx="6" fill="#3c9035"/>
  <text x="256" y="476" font-family="Oswald, system-ui, sans-serif" font-size="40" font-weight="700"
        fill="#f4f8ff" text-anchor="middle" letter-spacing="2">VIII CONCEFOR</text>
</svg>
